# xmcd CD database file
#
# Track frame offsets:
#	150
#	23985
#	54915
#	74263
#	92351
#	114165
#	138326
#	166051
#	187206
#	202726
#	232016
#
# Disc length: 3395 seconds
#
# Revision: 0
# Processed by: cddbd v1.5.2PL0 Copyright (c) Steve Scherf et al.
# Submitted via: CDex 1.51
#
DISCID=880d410b
DTITLE=Jeff and the Jett City Fliers - High Livin' Blues
DYEAR=2006
DGENRE=Blues
TTITLE0=Love and War
TTITLE1=Highlivin' Blues
TTITLE2=Crawfish Walk
TTITLE3=Sunny Day in Rainy Town
TTITLE4=Monkey Land
TTITLE5=My Next Ex Wife
TTITLE6=The Question Mark
TTITLE7=Sacred Ground
TTITLE8=I Love What You Got
TTITLE9=Overempowered Bureaucrat
TTITLE10=You Don't Have To Go
EXTD=YEAR: 2006
EXTT0=
EXTT1=
EXTT2=
EXTT3=
EXTT4=
EXTT5=
EXTT6=
EXTT7=
EXTT8=
EXTT9=
EXTT10=
PLAYORDER=
